# xmcd
#
# Track frame offsets: 
#        150
#        15704
#        33089
#        46603
#        62196
#        78070
#        95157
#        109032
#        124382
#        142171
#        159970
#
# Disc length: 2231 seconds
#
# Revision: 0
# Processed by: cddbd v1.5.2PL0 Copyright (c) Steve Scherf et al.
# Submitted via: ExactAudioCopy v1.2
#
DISCID=8808b50b
DTITLE=Mick Kolassa and Mark Telesca - You Can't Do That: Acoustic Blues
DTITLE=Beatles Tribute
DYEAR=2017
DGENRE=Blues
TTITLE0=I'll Cry Instead
TTITLE1=Can't Buy Me Love
TTITLE2=I Feel Fine
TTITLE3=Fixing A Hole
TTITLE4=You Can't Do That
TTITLE5=Got To Get You Into My Life
TTITLE6=Lady Madonna
TTITLE7=Why Don't We Do It In The Road
TTITLE8=She's A Woman
TTITLE9=Mean Mr Mustard - Polythene Pam
TTITLE10=She Came In Through The Bathroom Window
EXTD=
EXTT0=
EXTT1=
EXTT2=
EXTT3=
EXTT4=
EXTT5=
EXTT6=
EXTT7=
EXTT8=
EXTT9=
EXTT10=
PLAYORDER=
